<svg width="19" height="19" viewBox="0 0 19 19" fill="none" xmlns="http://www.w3.org/2000/svg">
<path d="M2.25355 18.6464C2.05829 18.8417 1.74171 18.8417 1.54645 18.6464L0.353554 17.4536C0.158291 17.2583 0.158291 16.9417 0.353553 16.7464L7.24645 9.85355C7.44171 9.65829 7.44171 9.34171 7.24645 9.14645L0.353554 2.25355C0.158292 2.05829 0.158291 1.74171 0.353553 1.54645L1.54645 0.353554C1.74171 0.158292 2.05829 0.158291 2.25355 0.353553L9.14645 7.24645C9.34171 7.44171 9.65829 7.44171 9.85355 7.24645L16.7464 0.353554C16.9417 0.158292 17.2583 0.158291 17.4536 0.353554L18.6464 1.54645C18.8417 1.74171 18.8417 2.05829 18.6464 2.25355L11.7536 9.14645C11.5583 9.34171 11.5583 9.65829 11.7536 9.85355L18.6464 16.7464C18.8417 16.9417 18.8417 17.2583 18.6464 17.4536L17.4536 18.6464C17.2583 18.8417 16.9417 18.8417 16.7464 18.6464L9.85355 11.7536C9.65829 11.5583 9.34171 11.5583 9.14645 11.7536L2.25355 18.6464Z" fill="white"/>
</svg>
