<svg width="204" height="35" viewBox="0 0 204 35" fill="none" xmlns="http://www.w3.org/2000/svg">
<path d="M28.2013 0.706543C29.6915 0.706543 31.0349 1.3364 31.9813 2.34493L1.63435 32.7668C0.628309 31.8181 0 30.4713 0 28.9774V5.90838C0 3.03549 2.32321 0.706543 5.18903 0.706543H28.2013Z" fill="white"/>
<path d="M64.2657 0.706543C65.756 0.706543 67.0994 1.3364 68.0458 2.34493L37.6988 32.7668C36.6928 31.8181 36.0645 30.4713 36.0645 28.9774V5.90838C36.0645 3.03549 38.3877 0.706543 41.2535 0.706543H64.2657Z" fill="white"/>
<path d="M100.329 0.706543C101.819 0.706543 103.163 1.3364 104.109 2.34493L73.7623 32.7668C72.7562 31.8181 72.1279 30.4713 72.1279 28.9774V5.90838C72.1279 3.03549 74.4511 0.706543 77.317 0.706543H100.329Z" fill="white"/>
<path d="M5.31143 34.3015C3.82119 34.3015 2.47778 33.6717 1.53136 32.6631L4.50835 28.077L16.7049 17.4522L26.6231 5.73718L31.8783 2.24125C32.8844 3.19 33.5127 4.53673 33.5127 6.03065L33.5127 29.0997C33.5127 31.9726 31.1895 34.3015 28.3237 34.3015L5.31143 34.3015Z" fill="#BDBEC1"/>
<path d="M41.3759 34.3015C39.8856 34.3015 38.5422 33.6717 37.5958 32.6631L40.5728 28.077L52.7693 17.4522L62.6876 5.73718L67.9428 2.24125C68.9488 3.19 69.5772 4.53673 69.5772 6.03065L69.5771 29.0997C69.5771 31.9726 67.2539 34.3015 64.3881 34.3015L41.3759 34.3015Z" fill="#BDBEC1"/>
<path d="M77.4384 34.3015C75.9481 34.3015 74.6047 33.6717 73.6583 32.6631L76.6353 28.077L88.8318 17.4522L98.7501 5.73718L104.005 2.24125C105.011 3.19 105.64 4.53673 105.64 6.03065L105.64 29.0997C105.64 31.9726 103.316 34.3015 100.451 34.3015L77.4384 34.3015Z" fill="#BDBEC1"/>
<path d="M3.40332 6.50465C3.40332 5.18609 4.46959 4.11719 5.78491 4.11719H26.1985C27.5138 4.11719 28.5801 5.18609 28.5801 6.50465V26.9687C28.5801 28.2872 27.5138 29.3561 26.1985 29.3561H5.78491C4.46959 29.3561 3.40332 28.2872 3.40332 26.9687V6.50465Z" fill="white"/>
<path d="M39.4658 6.50465C39.4658 5.18609 40.5321 4.11719 41.8474 4.11719H62.261C63.5763 4.11719 64.6426 5.18609 64.6426 6.50465V26.9687C64.6426 28.2872 63.5763 29.3561 62.261 29.3561H41.8474C40.5321 29.3561 39.4658 28.2872 39.4658 26.9687V6.50465Z" fill="white"/>
<path d="M75.5293 6.50465C75.5293 5.18609 76.5956 4.11719 77.9109 4.11719H98.3245C99.6398 4.11719 100.706 5.18609 100.706 6.50465V26.9687C100.706 28.2872 99.6398 29.3561 98.3245 29.3561H77.9109C76.5956 29.3561 75.5293 28.2872 75.5293 26.9687V6.50465Z" fill="white"/>
<path d="M13.0543 9.49506L9.38008 20.4884H6.80371L11.62 7.52783H13.2668L13.0543 9.49506ZM16.1264 20.4884L12.4345 9.49506L12.2132 7.52783H13.8688L18.7117 20.4884H16.1264ZM15.9582 15.6727V17.6043H8.98683L9.87993 15.693L15.9582 15.6727Z" fill="black"/>
<path d="M49.8894 17.0403C49.8894 16.7977 49.8527 16.5811 49.7793 16.3906C49.7116 16.1942 49.5846 16.018 49.3983 15.8621C49.2177 15.7004 48.9608 15.5444 48.6278 15.3943C48.3004 15.2383 47.877 15.0766 47.3577 14.9091C46.782 14.7243 46.2457 14.5164 45.749 14.2853C45.2522 14.0543 44.8147 13.7857 44.4365 13.4796C44.064 13.1735 43.7733 12.8212 43.5644 12.4227C43.3556 12.0184 43.2511 11.5506 43.2511 11.0192C43.2511 10.4994 43.3584 10.0258 43.5729 9.5984C43.793 9.171 44.1035 8.80425 44.5043 8.49814C44.9051 8.18625 45.3764 7.94657 45.9183 7.77907C46.4659 7.61158 47.0698 7.52783 47.7303 7.52783C48.6447 7.52783 49.435 7.69821 50.1011 8.03898C50.7728 8.37974 51.2921 8.84179 51.6591 9.42513C52.026 10.0085 52.2094 10.664 52.2094 11.3917H49.8894C49.8894 10.999 49.8076 10.6525 49.6439 10.3521C49.4858 10.0518 49.2431 9.81499 48.9157 9.64172C48.5939 9.46845 48.1875 9.38181 47.6964 9.38181C47.2223 9.38181 46.8271 9.45401 46.511 9.5984C46.2005 9.74279 45.9663 9.93916 45.8082 10.1875C45.6558 10.4359 45.5796 10.7131 45.5796 11.0192C45.5796 11.2502 45.6332 11.4582 45.7405 11.643C45.8477 11.822 46.0086 11.9924 46.2231 12.1541C46.4376 12.3101 46.7029 12.4573 47.019 12.596C47.3408 12.7288 47.7133 12.8616 48.1367 12.9945C48.8141 13.2024 49.4068 13.4334 49.9148 13.6876C50.4285 13.9417 50.8547 14.2305 51.1934 14.5539C51.5377 14.8773 51.7945 15.2412 51.9639 15.6455C52.1389 16.0498 52.2264 16.509 52.2264 17.023C52.2264 17.5659 52.1219 18.051 51.9131 18.4784C51.7042 18.9058 51.405 19.2697 51.0156 19.57C50.6261 19.8704 50.1575 20.0985 49.61 20.2545C49.0681 20.4104 48.4613 20.4884 47.7896 20.4884C47.1912 20.4884 46.5985 20.4075 46.0114 20.2458C45.43 20.0783 44.9022 19.8299 44.4281 19.5007C43.9539 19.1657 43.5757 18.7441 43.2935 18.2359C43.0112 17.7218 42.8701 17.1212 42.8701 16.4339H45.2071C45.2071 16.8324 45.2692 17.1732 45.3933 17.4562C45.5232 17.7334 45.7038 17.9615 45.9352 18.1406C46.1723 18.3138 46.4489 18.4409 46.765 18.5218C47.0811 18.6026 47.4226 18.6431 47.7896 18.6431C48.2637 18.6431 48.6532 18.5766 48.958 18.4438C49.2685 18.3052 49.4999 18.1146 49.6523 17.872C49.8104 17.6294 49.8894 17.3522 49.8894 17.0403Z" fill="black"/>
<path d="M82.9027 20.4884H81.4701L78.9336 20.4884L78.9518 18.5656L82.9027 18.5656C83.6752 18.5656 84.323 18.3995 84.8461 18.0672C85.3692 17.7289 85.7646 17.2453 86.0323 16.6162C86.2999 15.9813 86.4337 15.2217 86.4337 14.3375V13.6698C86.4337 12.9874 86.3577 12.3851 86.2056 11.8628C86.0536 11.3406 85.8285 10.9015 85.5304 10.5454C85.2385 10.1894 84.8765 9.91936 84.4447 9.7354C84.0128 9.55143 83.517 9.45945 82.9574 9.45945H79.9829V7.52783H82.9574C83.8455 7.52783 84.6545 7.67322 85.3845 7.964C86.1205 8.25478 86.7561 8.67315 87.2914 9.21911C87.8328 9.75913 88.2464 10.406 88.5323 11.1596C88.8243 11.9133 88.9703 12.756 88.9703 13.6876V14.3375C88.9703 15.2632 88.8243 16.1059 88.5323 16.8655C88.2464 17.6191 87.8328 18.266 87.2914 18.806C86.7561 19.346 86.1174 19.7614 85.3753 20.0522C84.6332 20.343 83.809 20.4884 82.9027 20.4884ZM81.4428 7.52783V20.4884H78.9336V7.52783H81.4428Z" fill="black"/>
<path d="M194.919 32.3816C193.069 32.3816 191.456 32.0197 190.081 31.2959C188.707 30.5722 187.636 29.5669 186.869 28.2802C186.129 26.9666 185.759 25.4386 185.759 23.6962V18.1471C185.759 16.4047 186.129 14.8901 186.869 13.6033C187.636 12.2898 188.707 11.2711 190.081 10.5473C191.456 9.82356 193.069 9.46167 194.919 9.46167C196.743 9.46167 198.33 9.82356 199.678 10.5473C201.053 11.2711 202.11 12.2898 202.85 13.6033C203.617 14.8901 204 16.4047 204 18.1471V22.128H190.557V23.6962C190.557 25.251 190.927 26.4305 191.668 27.2347C192.408 28.0121 193.505 28.4008 194.959 28.4008C196.069 28.4008 196.968 28.2131 197.656 27.8378C198.343 27.4357 198.779 26.8594 198.964 26.1088H203.842C203.472 28.0121 202.467 29.5401 200.828 30.6928C199.215 31.8187 197.246 32.3816 194.919 32.3816ZM199.202 19.3132V18.1069C199.202 16.5789 198.845 15.4128 198.131 14.6086C197.418 13.7776 196.347 13.3621 194.919 13.3621C193.492 13.3621 192.408 13.7776 191.668 14.6086C190.927 15.4396 190.557 16.6191 190.557 18.1471V18.9915L199.559 18.9111L199.202 19.3132Z" fill="#BDBEC1"/>
<path d="M162.695 32.3816V9.75634H167.486V14.0757H168.745L167.243 16.7085C167.243 14.2677 167.784 12.4302 168.867 11.1961C169.949 9.96202 171.546 9.34497 173.658 9.34497C176.067 9.34497 177.961 10.0991 179.342 11.6075C180.722 13.1158 181.413 15.2001 181.413 17.8603V19.5058H176.094V18.2305C176.094 16.777 175.715 15.6526 174.957 14.8573C174.226 14.062 173.211 13.6643 171.912 13.6643C170.586 13.6643 169.557 14.062 168.826 14.8573C168.122 15.6526 167.77 16.777 167.77 18.2305V32.3816H162.695Z" fill="#BDBEC1"/>
<path d="M147.365 32.3816C145.514 32.3816 143.901 32.0197 142.527 31.2959C141.152 30.5722 140.081 29.5669 139.314 28.2802C138.574 26.9666 138.204 25.4386 138.204 23.6962V18.1471C138.204 16.4047 138.574 14.8901 139.314 13.6033C140.081 12.2898 141.152 11.2711 142.527 10.5473C143.901 9.82356 145.514 9.46167 147.365 9.46167C149.189 9.46167 150.775 9.82356 152.123 10.5473C153.498 11.2711 154.555 12.2898 155.296 13.6033C156.062 14.8901 156.446 16.4047 156.446 18.1471V22.128H143.002V23.6962C143.002 25.251 143.373 26.4305 144.113 27.2347C144.853 28.0121 145.95 28.4008 147.404 28.4008C148.515 28.4008 149.413 28.2131 150.101 27.8378C150.788 27.4357 151.224 26.8594 151.409 26.1088H156.287C155.917 28.0121 154.912 29.5401 153.273 30.6928C151.661 31.8187 149.691 32.3816 147.365 32.3816ZM151.647 19.3132V18.1069C151.647 16.5789 151.291 15.4128 150.577 14.6086C149.863 13.7776 148.792 13.3621 147.365 13.3621C145.937 13.3621 144.853 13.7776 144.113 14.6086C143.373 15.4396 143.002 16.6191 143.002 18.1471V18.9915L152.004 18.9111L151.647 19.3132Z" fill="#BDBEC1"/>
<path d="M114.703 32.3818V2.62622H119.658V9.96322L119.539 14.2431H120.887L119.539 15.4252C119.539 13.5774 120.054 12.1371 121.085 11.1045C122.142 10.0719 123.582 9.55561 125.405 9.55561C127.546 9.55561 129.25 10.2893 130.518 11.7567C131.813 13.2241 132.461 15.1942 132.461 17.6671V32.3818H127.506V18.197C127.506 16.8383 127.162 15.7921 126.475 15.0584C125.788 14.3247 124.824 13.9578 123.582 13.9578C122.366 13.9578 121.402 14.3382 120.688 15.0991C120.001 15.86 119.658 16.947 119.658 18.36V32.3818H114.703Z" fill="#BDBEC1"/>
</svg>
