<svg width="158" height="27" fill="none" xmlns="http://www.w3.org/2000/svg"><path d="M21.842.494c1.154 0 2.195.488 2.928 1.269L1.266 25.325A4.022 4.022 0 0 1 0 22.39V4.523C0 2.298 1.8.494 4.019.494h17.823ZM49.775.494c1.154 0 2.194.488 2.928 1.269L29.198 25.325a4.022 4.022 0 0 1-1.265-2.935V4.523c0-2.225 1.799-4.029 4.019-4.029h17.823ZM77.707.494c1.154 0 2.194.488 2.927 1.269L57.13 25.325a4.022 4.022 0 0 1-1.266-2.935V4.523c0-2.225 1.8-4.029 4.02-4.029h17.823Z" fill="#fff"/><path d="M4.114 26.514a4.003 4.003 0 0 1-2.928-1.27l2.306-3.551 9.446-8.23L20.62 4.39l4.07-2.707a4.022 4.022 0 0 1 1.266 2.935v17.867c0 2.225-1.8 4.029-4.019 4.029H4.114ZM32.047 26.514a4.003 4.003 0 0 1-2.928-1.27l2.305-3.551 9.447-8.23 7.682-9.073 4.07-2.707a4.022 4.022 0 0 1 1.266 2.935v17.867c0 2.225-1.8 4.029-4.02 4.029H32.048ZM59.977 26.514a4.003 4.003 0 0 1-2.928-1.27l2.306-3.551 9.447-8.23 7.681-9.073 4.07-2.707a4.022 4.022 0 0 1 1.266 2.935v17.867c0 2.225-1.799 4.029-4.019 4.029H59.977Z" fill="#BDBEC1"/><path d="M2.636 4.985c0-1.022.826-1.85 1.844-1.85h15.81c1.02 0 1.846.829 1.846 1.85v15.85c0 1.02-.826 1.848-1.845 1.848H4.48a1.847 1.847 0 0 1-1.845-1.849V4.984ZM30.566 4.985c0-1.022.826-1.85 1.845-1.85h15.81c1.02 0 1.845.829 1.845 1.85v15.85c0 1.02-.826 1.848-1.844 1.848H32.41a1.847 1.847 0 0 1-1.845-1.849V4.984ZM58.498 4.985c0-1.022.826-1.85 1.845-1.85h15.81c1.019 0 1.845.829 1.845 1.85v15.85c0 1.02-.826 1.848-1.845 1.848h-15.81a1.847 1.847 0 0 1-1.845-1.849V4.984Z" fill="#fff"/><path d="m10.11 7.3-2.845 8.515H5.27L9 5.777h1.275l-.164 1.524Zm2.38 8.515L9.63 7.301l-.17-1.524h1.281l3.751 10.038H12.49Zm-.13-3.73v1.497h-5.4l.692-1.48 4.708-.017ZM38.64 13.145c0-.188-.029-.356-.086-.503a.93.93 0 0 0-.295-.41 2.346 2.346 0 0 0-.596-.362 8.183 8.183 0 0 0-.984-.376 10.736 10.736 0 0 1-1.246-.483 4.874 4.874 0 0 1-1.017-.624 2.645 2.645 0 0 1-.675-.819 2.335 2.335 0 0 1-.243-1.087c0-.402.083-.769.25-1.1.17-.331.41-.615.72-.852.311-.242.676-.427 1.096-.557.424-.13.892-.195 1.403-.195.709 0 1.32.132 1.837.396.52.264.922.622 1.206 1.074.284.452.427.96.427 1.523H38.64c0-.304-.064-.573-.19-.805a1.307 1.307 0 0 0-.565-.55c-.249-.135-.563-.202-.944-.202-.367 0-.673.056-.918.168-.24.112-.422.264-.544.456a1.207 1.207 0 0 0-.177.644c0 .18.041.34.124.484.083.138.208.27.374.395.166.121.372.235.617.343.249.103.537.205.865.308.525.161.984.34 1.377.537.398.197.728.42.99.671.267.25.466.532.597.846.136.313.204.668.204 1.067 0 .42-.081.796-.243 1.127a2.374 2.374 0 0 1-.695.845c-.302.233-.665.41-1.089.53-.42.121-.89.181-1.41.181-.463 0-.922-.062-1.377-.187-.45-.13-.859-.322-1.226-.578a2.92 2.92 0 0 1-.879-.98c-.219-.397-.328-.863-.328-1.395h1.81c0 .309.048.573.144.792.1.215.24.391.42.53.184.134.398.233.643.295.245.063.51.094.793.094.367 0 .67-.051.905-.154.24-.107.42-.255.538-.443.122-.188.184-.403.184-.644ZM64.209 15.815h-3.074l.014-1.489h3.06c.598 0 1.1-.129 1.505-.386.405-.262.712-.636.919-1.124.207-.492.31-1.08.31-1.765v-.517c0-.528-.058-.995-.176-1.4a2.774 2.774 0 0 0-.523-1.02 2.17 2.17 0 0 0-.84-.627 2.917 2.917 0 0 0-1.153-.214h-2.304V5.777h2.304c.688 0 1.315.113 1.88.338.57.225 1.062.55 1.477.972.42.418.74.92.961 1.503.226.584.34 1.236.34 1.958v.503c0 .717-.114 1.37-.34 1.958a4.194 4.194 0 0 1-.961 1.503 4.24 4.24 0 0 1-1.484.965 5.21 5.21 0 0 1-1.915.338Zm-1.13-10.038v10.038h-1.944V5.777h1.943Z" fill="#000"/><path d="M150.967 25.027c-1.433 0-2.682-.28-3.747-.84-1.065-.561-1.894-1.34-2.488-2.337-.573-1.017-.86-2.2-.86-3.55v-4.298c0-1.35.287-2.522.86-3.519a6.119 6.119 0 0 1 2.488-2.367c1.065-.56 2.314-.84 3.747-.84 1.413 0 2.641.28 3.686.84a5.925 5.925 0 0 1 2.457 2.367c.594.997.89 2.17.89 3.52v3.082h-10.412V18.3c0 1.204.287 2.118.86 2.74.574.603 1.424.904 2.55.904.86 0 1.556-.145 2.088-.436.533-.312.87-.758 1.014-1.34h3.778c-.287 1.475-1.065 2.658-2.335 3.551-1.249.872-2.774 1.308-4.576 1.308Zm3.317-10.122v-.934c0-1.183-.276-2.087-.829-2.71-.553-.643-1.382-.965-2.488-.965s-1.945.322-2.519.966c-.573.643-.86 1.557-.86 2.74v.654l6.972-.062-.276.311ZM126.01 25.027V7.504h3.71v3.345h.975l-1.163 2.039c0-1.89.419-3.313 1.258-4.27.838-.955 2.075-1.433 3.71-1.433 1.866 0 3.334.584 4.403 1.752 1.069 1.168 1.603 2.783 1.603 4.843v1.275h-4.119v-.988c0-1.126-.293-1.997-.88-2.613-.566-.616-1.353-.924-2.359-.924-1.027 0-1.824.308-2.39.924-.545.616-.817 1.487-.817 2.613v10.96h-3.931ZM114.136 25.027c-1.433 0-2.682-.28-3.747-.84-1.065-.561-1.894-1.34-2.488-2.337-.573-1.017-.86-2.2-.86-3.55v-4.298c0-1.35.287-2.522.86-3.519a6.119 6.119 0 0 1 2.488-2.367c1.065-.56 2.314-.84 3.747-.84 1.413 0 2.641.28 3.686.84a5.925 5.925 0 0 1 2.457 2.367c.593.997.89 2.17.89 3.52v3.082h-10.412V18.3c0 1.204.287 2.118.86 2.74.574.603 1.423.904 2.55.904.86 0 1.556-.145 2.088-.436.533-.312.87-.758 1.014-1.34h3.778c-.287 1.475-1.065 2.658-2.335 3.551-1.249.872-2.774 1.308-4.576 1.308Zm3.317-10.122v-.934c0-1.183-.276-2.087-.829-2.71-.553-.643-1.382-.965-2.488-.965s-1.945.322-2.519.966c-.573.643-.86 1.557-.86 2.74v.654l6.972-.062-.276.311ZM88.839 25.027V1.981h3.837v5.683l-.092 3.314h1.044l-1.044.916c0-1.431.4-2.547 1.197-3.346.82-.8 1.934-1.2 3.347-1.2 1.657 0 2.978.568 3.96 1.705 1.003 1.136 1.504 2.662 1.504 4.577v11.397h-3.837V14.041c0-1.053-.266-1.863-.798-2.431-.532-.569-1.28-.853-2.241-.853-.942 0-1.689.295-2.241.884-.533.59-.799 1.431-.799 2.526v10.86H88.84Z" fill="#fff"/></svg>