<svg width="38" height="38" viewBox="0 0 38 38" fill="none" xmlns="http://www.w3.org/2000/svg">
<g clip-path="url(#clip0_24_1475)">
<path d="M19.0003 35.52C28.125 35.52 35.522 28.123 35.522 18.9983C35.522 9.8736 28.125 2.47656 19.0003 2.47656C9.87555 2.47656 2.47852 9.8736 2.47852 18.9983C2.47852 28.123 9.87555 35.52 19.0003 35.52Z" fill="#459AD1"/>
</g>
<path d="M27.9849 18.3439C27.9553 19.0276 27.8518 19.715 27.6743 20.4061C27.4968 21.0897 27.2306 21.7176 26.8756 22.2898C26.5207 22.862 26.0585 23.3227 25.489 23.672C24.927 24.0138 24.2467 24.1847 23.448 24.1847C22.9377 24.1847 22.4903 24.0955 22.1058 23.9172C21.7286 23.7314 21.418 23.4676 21.174 23.1258C20.9373 22.784 20.7709 22.3716 20.6748 21.8885C20.5861 21.4055 20.5713 20.8668 20.6304 20.2723L21.1962 14.0971H22.8268L22.2611 20.2723C22.2167 20.8148 22.2278 21.2569 22.2943 21.5987C22.3683 21.9406 22.4792 22.2044 22.6271 22.3901C22.775 22.5685 22.9414 22.6911 23.1263 22.758C23.3186 22.8248 23.5034 22.8583 23.6809 22.8583C24.1246 22.8583 24.5203 22.7431 24.8678 22.5127C25.2154 22.2749 25.5075 21.9517 25.7442 21.543C25.9882 21.1269 26.1768 20.6476 26.3099 20.1051C26.443 19.5552 26.5244 18.9682 26.5539 18.3439C26.6057 17.2367 26.5539 16.2187 26.3986 15.2898C26.2507 14.3609 25.9956 13.5361 25.6332 12.8153C25.2783 12.0945 24.8124 11.4851 24.2356 10.9873C23.6587 10.4894 22.971 10.1104 22.1723 9.85032C21.3736 9.59023 20.4603 9.46019 19.4324 9.46019C18.5006 9.46019 17.6391 9.6051 16.8478 9.8949C16.0639 10.1773 15.3577 10.586 14.7291 11.121C14.1079 11.6561 13.5718 12.2988 13.1207 13.0494C12.6769 13.7999 12.3257 14.647 12.0668 15.5908C11.8154 16.5271 11.6675 17.5377 11.6231 18.6226C11.5714 19.7373 11.6305 20.7627 11.8006 21.699C11.9707 22.6279 12.2443 23.4565 12.6215 24.1847C13.006 24.9204 13.4904 25.5409 14.0746 26.0462C14.6588 26.5589 15.3355 26.9453 16.1046 27.2054C16.8737 27.4729 17.7315 27.6067 18.6781 27.6067C19.3289 27.6067 19.987 27.5287 20.6526 27.3726C21.3256 27.2166 21.8876 27.0048 22.3387 26.7373L22.7602 28.008C22.2426 28.3424 21.5955 28.5913 20.819 28.7548C20.0499 28.9183 19.3215 29 18.6337 29C17.5097 29 16.4817 28.844 15.55 28.5318C14.6256 28.2272 13.8047 27.7776 13.0874 27.1831C12.3774 26.5961 11.7858 25.879 11.3125 25.0318C10.8392 24.1921 10.4917 23.2335 10.2698 22.1561C10.048 21.0786 9.96292 19.9007 10.0147 18.6226C10.0665 17.4039 10.2476 16.2558 10.5582 15.1783C10.8762 14.1008 11.3088 13.1237 11.8561 12.2468C12.4033 11.37 13.0541 10.6157 13.8084 9.98408C14.5701 9.34501 15.4242 8.85456 16.3708 8.51274C17.3248 8.17091 18.3601 8 19.4768 8C20.6156 8 21.6473 8.15605 22.5717 8.46815C23.496 8.78025 24.3058 9.22983 25.001 9.81688C25.7035 10.4039 26.284 11.121 26.7425 11.9682C27.201 12.8153 27.5338 13.7739 27.7409 14.8439C27.9553 15.914 28.0367 17.0807 27.9849 18.3439ZM16.5927 19.2914C16.5409 19.8116 16.5409 20.276 16.5927 20.6847C16.6444 21.0934 16.7443 21.439 16.8922 21.7213C17.0401 22.0037 17.2324 22.2192 17.469 22.3678C17.713 22.509 17.9978 22.5796 18.3231 22.5796C18.5376 22.5796 18.7632 22.5276 18.9998 22.4236C19.2364 22.3121 19.4694 22.1412 19.6986 21.9108C19.9279 21.6805 20.1423 21.3795 20.342 21.008C20.5417 20.6364 20.7081 20.1906 20.8412 19.6704L21.5733 20.4729C21.4032 21.0823 21.1814 21.6173 20.9077 22.078C20.6415 22.5387 20.342 22.9252 20.0092 23.2373C19.6765 23.5494 19.3215 23.7872 18.9443 23.9506C18.5746 24.1067 18.1974 24.1847 17.8129 24.1847C17.273 24.1847 16.7997 24.0695 16.393 23.8392C15.9863 23.6014 15.6572 23.267 15.4058 22.836C15.1543 22.405 14.9768 21.8923 14.8733 21.2978C14.7772 20.6959 14.7624 20.0271 14.8289 19.2914C14.8955 18.5111 15.0323 17.7903 15.2394 17.129C15.4464 16.4676 15.7016 15.8769 16.0048 15.3567C16.3154 14.8365 16.6629 14.3944 17.0475 14.0303C17.4394 13.6661 17.8535 13.3912 18.2899 13.2054C18.7262 13.0122 19.1736 12.9156 19.6321 12.9156C20.4308 12.9156 21.0593 13.0345 21.5178 13.2723C21.9763 13.5027 22.4127 13.7776 22.8268 14.0971L21.8839 15.2006C21.6694 14.9926 21.3884 14.7994 21.0409 14.621C20.6933 14.4427 20.2829 14.3535 19.8096 14.3535C19.4028 14.3535 19.022 14.4575 18.667 14.6656C18.312 14.8737 17.9904 15.1858 17.7019 15.6019C17.4209 16.018 17.1843 16.5345 16.992 17.1513C16.7997 17.7606 16.6666 18.474 16.5927 19.2914Z" fill="white"/>
<defs>
<clipPath id="clip0_24_1475">
<rect width="33.0435" height="33.0435" fill="white" transform="translate(2.47852 2.47656)"/>
</clipPath>
</defs>
</svg>
