<svg width="34" height="34" viewBox="0 0 34 34" fill="none" xmlns="http://www.w3.org/2000/svg">
<g clip-path="url(#clip0_54_936)">
<path d="M17.0003 33.52C26.125 33.52 33.522 26.123 33.522 16.9983C33.522 7.8736 26.125 0.476562 17.0003 0.476562C7.87555 0.476562 0.478516 7.8736 0.478516 16.9983C0.478516 26.123 7.87555 33.52 17.0003 33.52Z" fill="#78C0EE"/>
<path fill-rule="evenodd" clip-rule="evenodd" d="M7.95807 16.8231C12.7745 14.7247 15.9862 13.3413 17.5932 12.6729C22.1814 10.7645 23.1348 10.4329 23.7563 10.422C23.8929 10.4196 24.1985 10.4535 24.3965 10.6141C24.5636 10.7497 24.6096 10.9329 24.6316 11.0615C24.6536 11.1901 24.681 11.483 24.6592 11.7119C24.4106 14.3244 23.3347 20.6642 22.7874 23.5902C22.5558 24.8283 22.0998 25.2434 21.6583 25.2841C20.6988 25.3724 19.9703 24.65 19.041 24.0409C17.5869 23.0877 16.7654 22.4943 15.3539 21.5641C13.7227 20.4892 14.7801 19.8984 15.7098 18.9328C15.9531 18.6801 20.1804 14.835 20.2622 14.4862C20.2725 14.4426 20.282 14.28 20.1854 14.1941C20.0888 14.1083 19.9462 14.1376 19.8433 14.161C19.6974 14.1941 17.3744 15.7295 12.8743 18.7672C12.2149 19.22 11.6177 19.4406 11.0826 19.429C10.4927 19.4163 9.35793 19.0955 8.51436 18.8213C7.47969 18.4849 6.65735 18.3071 6.72896 17.7359C6.76625 17.4384 7.17596 17.1341 7.95807 16.8231Z" fill="#0A649F"/>
</g>
<defs>
<clipPath id="clip0_54_936">
<rect width="33.0435" height="33.0435" fill="white" transform="translate(0.478516 0.476562)"/>
</clipPath>
</defs>
</svg>
