<svg width="34" height="34" viewBox="0 0 34 34" fill="none" xmlns="http://www.w3.org/2000/svg">
<g clip-path="url(#clip0_24_1471)">
<path d="M17.0003 33.52C26.125 33.52 33.522 26.123 33.522 16.9983C33.522 7.8736 26.125 0.476562 17.0003 0.476562C7.87555 0.476562 0.478516 7.8736 0.478516 16.9983C0.478516 26.123 7.87555 33.52 17.0003 33.52Z" fill="#459AD1"/>
<path fill-rule="evenodd" clip-rule="evenodd" d="M7.95709 16.8231C12.7735 14.7247 15.9852 13.3413 17.5922 12.6729C22.1805 10.7645 23.1339 10.4329 23.7553 10.422C23.892 10.4196 24.1975 10.4535 24.3955 10.6141C24.5626 10.7497 24.6086 10.9329 24.6306 11.0615C24.6526 11.1901 24.68 11.483 24.6583 11.7119C24.4096 14.3244 23.3338 20.6642 22.7864 23.5902C22.5548 24.8283 22.0988 25.2434 21.6573 25.2841C20.6979 25.3724 19.9693 24.65 19.04 24.0409C17.5859 23.0877 16.7644 22.4943 15.3529 21.5641C13.7217 20.4892 14.7792 19.8984 15.7088 18.9328C15.9521 18.6801 20.1794 14.835 20.2613 14.4862C20.2715 14.4426 20.281 14.28 20.1844 14.1941C20.0878 14.1083 19.9452 14.1376 19.8423 14.161C19.6965 14.1941 17.3735 15.7295 12.8733 18.7672C12.214 19.22 11.6167 19.4406 11.0816 19.429C10.4917 19.4163 9.35696 19.0955 8.51339 18.8213C7.47871 18.4849 6.65637 18.3071 6.72798 17.7359C6.76528 17.4384 7.17498 17.1341 7.95709 16.8231Z" fill="white"/>
</g>
<defs>
<clipPath id="clip0_24_1471">
<rect width="33.0435" height="33.0435" fill="white" transform="translate(0.478516 0.476562)"/>
</clipPath>
</defs>
</svg>
