<svg width="172" height="168" fill="none" xmlns="http://www.w3.org/2000/svg"><path d="M59.682 0c7.957 0 15.532 1.678 22.725 5.035 7.192 3.357 13.39 8.088 18.593 14.191 5.203-6.103 11.401-10.834 18.593-14.19C126.786 1.677 134.361 0 142.318 0c14.385 0 26.398 4.807 36.039 14.42 9.641 9.613 14.461 21.59 14.461 35.934 0 .763-.038 1.526-.115 2.29a23.075 23.075 0 0 0-.114 2.288h-18.364c.153-.763.23-1.526.23-2.289v-2.289c0-9.155-3.061-16.785-9.182-22.888-6.121-6.104-13.773-9.155-22.955-9.155-7.192 0-13.849 2.021-19.97 6.065-6.121 4.044-10.33 9.193-12.625 15.45H92.277c-2.295-6.257-6.504-11.406-12.625-15.45-6.12-4.044-12.778-6.065-19.97-6.065-9.182 0-16.834 3.051-22.955 9.155-6.12 6.103-9.181 13.733-9.181 22.888v2.29c0 .762.076 1.525.229 2.288H9.411c0-.763-.038-1.526-.114-2.289a22.926 22.926 0 0 1-.115-2.289c0-14.343 4.82-26.321 14.461-35.934C33.284 4.807 45.297 0 59.682 0Zm-20.2 109.864H65.19c4.897 4.73 10.253 9.842 16.068 15.335 5.815 5.493 12.395 11.52 19.741 18.082 7.345-6.562 13.926-12.589 19.741-18.082a2006.288 2006.288 0 0 0 16.068-15.335h25.939c-5.815 6.408-12.702 13.351-20.659 20.828-7.958 7.477-17.216 15.946-27.775 25.406L101 168l-13.314-11.902c-10.559-9.46-19.779-17.929-27.66-25.406-7.88-7.477-14.729-14.42-20.544-20.828Zm52.795 9.155c1.99 0 3.711-.572 5.165-1.717 1.454-1.144 2.487-2.632 3.099-4.463l12.395-37.308 8.034 11.902c.766 1.221 1.837 2.213 3.214 2.976 1.377.763 2.831 1.144 4.361 1.144H202v-18.31h-68.175l-15.839-23.346c-.918-1.374-2.104-2.404-3.558-3.09-1.453-.687-3.022-1.03-4.705-1.03-1.99 0-3.711.572-5.165 1.716-1.454 1.145-2.487 2.632-3.099 4.463l-12.395 37.08-7.805-11.674c-.765-1.22-1.836-2.212-3.213-2.975-1.378-.763-2.832-1.144-4.362-1.144H0v18.31h68.175L84.014 114.9c.918 1.373 2.104 2.403 3.558 3.09 1.453.687 3.022 1.03 4.705 1.03Z" fill="#fff" fill-opacity=".03"/></svg>