<svg width="174" height="168" viewBox="0 0 174 168" fill="none" xmlns="http://www.w3.org/2000/svg">
<path d="M89.1401 120.75C93.3597 124.95 98.8101 127.006 105.491 126.919C112.172 126.831 117.095 124.425 120.26 119.7L179.335 31.5L90.7224 90.3C85.9753 93.45 83.4699 98.2625 83.2062 104.737C82.9425 111.212 84.9204 116.55 89.1401 120.75ZM105.491 0C115.865 0 125.842 1.44375 135.424 4.33125C145.006 7.21875 154.017 11.55 162.456 17.325L142.413 29.925C136.611 26.95 130.589 24.7187 124.348 23.2312C118.106 21.7437 111.821 21 105.491 21C82.1073 21 62.1959 29.1812 45.7568 45.5437C29.3178 61.9062 21.0982 81.725 21.0982 105C21.0982 112.35 22.1092 119.612 24.1311 126.787C26.153 133.962 29.0101 140.7 32.7023 147H178.28C182.324 140.35 185.269 133.438 187.115 126.262C188.961 119.087 189.884 111.65 189.884 103.95C189.884 97.65 189.137 91.525 187.642 85.575C186.148 79.625 183.906 73.85 180.917 68.25L193.576 48.3C198.851 56.525 203.027 65.275 206.103 74.55C209.18 83.825 210.807 93.45 210.982 103.425C211.158 113.4 210.015 122.937 207.554 132.037C205.092 141.137 201.488 149.8 196.741 158.025C194.807 161.175 192.17 163.625 188.829 165.375C185.489 167.125 181.972 168 178.28 168H32.7023C29.0101 168 25.4937 167.125 22.1532 165.375C18.8126 163.625 16.1753 161.175 14.2413 158.025C9.67003 150.15 6.15365 141.794 3.69219 132.956C1.23073 124.119 0 114.8 0 105C0 90.475 2.76914 76.8687 8.30743 64.1812C13.8457 51.4937 21.4059 40.3812 30.988 30.8437C40.5702 21.3062 51.7786 13.7812 64.6134 8.26875C77.4481 2.75625 91.0741 0 105.491 0Z" fill="white" fill-opacity="0.03"/>
</svg>
