<svg width="123" height="168" fill="none" xmlns="http://www.w3.org/2000/svg"><path d="M48 16V0h48v16H48Zm16 88h16V56H64v48Zm8 64c-9.867 0-19.167-1.9-27.9-5.7-8.733-3.8-16.367-8.967-22.9-15.5-6.533-6.533-11.7-14.167-15.5-22.9C1.9 115.167 0 105.867 0 96c0-9.867 1.9-19.167 5.7-27.9 3.8-8.733 8.967-16.367 15.5-22.9 6.533-6.533 14.167-11.7 22.9-15.5C52.833 25.9 62.133 24 72 24c8.267 0 16.2 1.333 23.8 4 7.6 2.667 14.733 6.533 21.4 11.6l11.2-11.2 11.2 11.2-11.2 11.2c5.067 6.667 8.933 13.8 11.6 21.4 2.667 7.6 4 15.533 4 23.8 0 9.867-1.9 19.167-5.7 27.9-3.8 8.733-8.967 16.367-15.5 22.9-6.533 6.533-14.167 11.7-22.9 15.5-8.733 3.8-18.033 5.7-27.9 5.7Zm0-16c15.467 0 28.667-5.467 39.6-16.4S128 111.467 128 96c0-15.467-5.467-28.667-16.4-39.6S87.467 40 72 40c-15.467 0-28.667 5.467-39.6 16.4S16 80.533 16 96c0 15.467 5.467 28.667 16.4 39.6S56.533 152 72 152Z" fill="#fff" fill-opacity=".03"/></svg>