<svg width="161" height="168" fill="none" xmlns="http://www.w3.org/2000/svg"><path d="M84.15 168v-18.667h74.8V83.067c0-18.2-6.35-33.64-19.051-46.317-12.7-12.678-28.167-19.017-46.399-19.017-18.233 0-33.699 6.34-46.4 19.017-12.7 12.678-19.05 28.117-19.05 46.317V140H18.7c-5.143 0-9.545-1.828-13.207-5.483C1.831 130.861 0 126.467 0 121.333v-18.666c0-3.267.818-6.34 2.454-9.217 1.637-2.878 3.935-5.172 6.896-6.883l.701-12.367c1.247-10.578 4.325-20.378 9.233-29.4 4.91-9.022 11.065-16.878 18.467-23.567 7.402-6.689 15.895-11.9 25.478-15.633C72.813 1.867 82.903 0 93.5 0c10.597 0 20.648 1.867 30.154 5.6 9.506 3.733 17.998 8.906 25.479 15.517 7.48 6.61 13.635 14.427 18.466 23.45 4.831 9.022 7.947 18.822 9.35 29.4l.701 12.133c2.961 1.4 5.259 3.5 6.896 6.3 1.636 2.8 2.454 5.756 2.454 8.867v21.466c0 3.111-.818 6.067-2.454 8.867-1.637 2.8-3.935 4.9-6.896 6.3v11.433c0 5.134-1.831 9.528-5.493 13.184-3.662 3.655-8.065 5.483-13.207 5.483h-74.8Zm-18.7-65.333c-2.65 0-4.87-.895-6.662-2.684-1.792-1.789-2.688-4.005-2.688-6.65 0-2.644.896-4.86 2.688-6.65C60.58 84.894 62.801 84 65.45 84c2.65 0 4.87.894 6.662 2.683 1.792 1.79 2.688 4.006 2.688 6.65 0 2.645-.896 4.861-2.688 6.65-1.792 1.789-4.013 2.684-6.662 2.684Zm56.1 0c-2.649 0-4.87-.895-6.662-2.684-1.792-1.789-2.688-4.005-2.688-6.65 0-2.644.896-4.86 2.688-6.65C116.68 84.894 118.901 84 121.55 84s4.87.894 6.662 2.683c1.792 1.79 2.688 4.006 2.688 6.65 0 2.645-.896 4.861-2.688 6.65-1.792 1.789-4.013 2.684-6.662 2.684ZM37.634 88.2c-1.091-16.489 3.896-30.644 14.96-42.467C63.658 33.911 77.449 28 93.967 28c13.87 0 26.064 4.394 36.582 13.183 10.519 8.79 16.869 20.028 19.051 33.717-14.181-.156-27.232-3.967-39.153-11.433C98.526 56 89.37 45.889 82.981 33.133c-2.493 12.445-7.752 23.528-15.778 33.25-8.025 9.723-17.882 16.995-29.57 21.817Z" fill="#fff" fill-opacity=".03"/></svg>