<svg width="86" height="86" viewBox="0 0 86 86" fill="none" xmlns="http://www.w3.org/2000/svg">
<path d="M86 43C86 66.7482 66.7482 86 43 86C19.2518 86 0 66.7482 0 43C0 19.2518 19.2518 0 43 0C66.7482 0 86 19.2518 86 43Z" fill="white"/>
<path d="M25.2886 30.5066C26.3607 30.5066 27.3272 30.9586 28.008 31.6824L6.17579 53.5146C5.45202 52.8338 5 51.8673 5 50.7952V34.2397C5 32.178 6.67137 30.5066 8.7331 30.5066H25.2886Z" fill="#546F7A"/>
<path d="M51.2339 30.5066C52.306 30.5066 53.2725 30.9586 53.9534 31.6824L32.1211 53.5146C31.3973 52.8338 30.9453 51.8673 30.9453 50.7952V34.2397C30.9453 32.178 32.6167 30.5066 34.6784 30.5066H51.2339Z" fill="#546F7A"/>
<path d="M77.1791 30.5066C78.2512 30.5066 79.2177 30.9586 79.8986 31.6824L58.0663 53.5146C57.3425 52.8338 56.8905 51.8673 56.8905 50.7952V34.2397C56.8905 32.178 58.5619 30.5066 60.6236 30.5066H77.1791Z" fill="#546F7A"/>
<path d="M8.82091 54.6145C7.7488 54.6145 6.78232 54.1625 6.10145 53.4387L8.24315 50.1475L17.0176 42.5226L24.153 34.1153L27.9337 31.6065C28.6575 32.2873 29.1095 33.2538 29.1095 34.3259L29.1095 50.8814C29.1095 52.9431 27.4381 54.6145 25.3764 54.6145L8.82091 54.6145Z" fill="#445A65"/>
<path d="M34.7662 54.6145C33.6941 54.6145 32.7276 54.1625 32.0468 53.4387L34.1885 50.1475L42.9629 42.5226L50.0983 34.1153L53.879 31.6065C54.6028 32.2873 55.0548 33.2538 55.0548 34.3259L55.0548 50.8814C55.0548 52.9431 53.3834 54.6145 51.3217 54.6145L34.7662 54.6145Z" fill="#445A65"/>
<path d="M60.7114 54.6145C59.6393 54.6145 58.6728 54.1625 57.9919 53.4387L60.1337 50.1475L68.9081 42.5226L76.0435 34.1153L79.8242 31.6065C80.548 32.2873 81 33.2538 81 34.3259L81 50.8814C81 52.9431 79.3286 54.6145 77.2669 54.6145L60.7114 54.6145Z" fill="#445A65"/>
<path d="M7.44775 34.6661C7.44775 33.7199 8.21485 32.9528 9.16112 32.9528H23.8471C24.7934 32.9528 25.5605 33.7199 25.5605 34.6661V49.3521C25.5605 50.2984 24.7934 51.0655 23.8471 51.0655H9.16112C8.21485 51.0655 7.44775 50.2984 7.44775 49.3521V34.6661Z" fill="#546F7A"/>
<path d="M33.3928 34.6661C33.3928 33.7199 34.1599 32.9528 35.1062 32.9528H49.7922C50.7384 32.9528 51.5055 33.7199 51.5055 34.6661V49.3521C51.5055 50.2984 50.7384 51.0655 49.7922 51.0655H35.1062C34.1599 51.0655 33.3928 50.2984 33.3928 49.3521V34.6661Z" fill="#546F7A"/>
<path d="M59.3381 34.6661C59.3381 33.7199 60.1052 32.9528 61.0515 32.9528H75.7375C76.6838 32.9528 77.4509 33.7199 77.4509 34.6661V49.3521C77.4509 50.2984 76.6838 51.0655 75.7375 51.0655H61.0515C60.1052 51.0655 59.3381 50.2984 59.3381 49.3521V34.6661Z" fill="#546F7A"/>
<path d="M14.3921 36.8128L11.7488 44.7021H9.89526L13.3602 35.401H14.5449L14.3921 36.8128ZM16.6022 44.7021L13.9462 36.8128L13.787 35.401H14.978L18.4621 44.7021H16.6022ZM16.4812 41.2461V42.6324H11.4658L12.1084 41.2607L16.4812 41.2461Z" fill="white"/>
<path d="M40.8904 42.2276C40.8904 42.0535 40.864 41.8981 40.8112 41.7613C40.7625 41.6204 40.6711 41.494 40.5371 41.3821C40.4072 41.266 40.2224 41.1541 39.9828 41.0463C39.7472 40.9344 39.4427 40.8184 39.0691 40.6982C38.6548 40.5655 38.269 40.4163 37.9117 40.2505C37.5543 40.0847 37.2396 39.892 36.9675 39.6723C36.6995 39.4526 36.4903 39.1998 36.3401 38.9138C36.1898 38.6237 36.1147 38.2879 36.1147 37.9066C36.1147 37.5335 36.1919 37.1937 36.3462 36.8869C36.5045 36.5802 36.7279 36.317 37.0162 36.0973C37.3046 35.8735 37.6437 35.7015 38.0335 35.5813C38.4274 35.4611 38.8619 35.401 39.3371 35.401C39.995 35.401 40.5635 35.5233 41.0427 35.7678C41.526 36.0124 41.8996 36.344 42.1635 36.7626C42.4275 37.1812 42.5595 37.6517 42.5595 38.1739H40.8904C40.8904 37.8921 40.8315 37.6434 40.7138 37.4279C40.6 37.2123 40.4254 37.0424 40.1899 36.918C39.9584 36.7937 39.666 36.7315 39.3127 36.7315C38.9716 36.7315 38.6873 36.7833 38.4599 36.8869C38.2366 36.9906 38.068 37.1315 37.9543 37.3097C37.8447 37.488 37.7898 37.6869 37.7898 37.9066C37.7898 38.0724 37.8284 38.2216 37.9056 38.3542C37.9827 38.4827 38.0985 38.605 38.2528 38.7211C38.4071 38.833 38.598 38.9387 38.8254 39.0381C39.0569 39.1335 39.3249 39.2288 39.6295 39.3241C40.1168 39.4734 40.5432 39.6391 40.9087 39.8215C41.2782 40.0039 41.5848 40.2111 41.8285 40.4433C42.0762 40.6754 42.261 40.9365 42.3828 41.2266C42.5087 41.5168 42.5717 41.8463 42.5717 42.2152C42.5717 42.6048 42.4965 42.953 42.3463 43.2597C42.196 43.5664 41.9808 43.8276 41.7006 44.0431C41.4204 44.2586 41.0833 44.4223 40.6894 44.5343C40.2995 44.6462 39.863 44.7021 39.3797 44.7021C38.9493 44.7021 38.5229 44.6441 38.1005 44.528C37.6822 44.4078 37.3025 44.2296 36.9614 43.9934C36.6203 43.7529 36.3482 43.4504 36.1451 43.0856C35.9421 42.7167 35.8406 42.2857 35.8406 41.7924H37.5218C37.5218 42.0784 37.5665 42.323 37.6558 42.5261C37.7492 42.725 37.8792 42.8887 38.0457 43.0172C38.2163 43.1416 38.4152 43.2328 38.6427 43.2908C38.8701 43.3488 39.1158 43.3778 39.3797 43.3778C39.7208 43.3778 40.0011 43.3302 40.2203 43.2348C40.4437 43.1354 40.6102 42.9986 40.7198 42.8245C40.8336 42.6504 40.8904 42.4515 40.8904 42.2276Z" fill="white"/>
<path d="M37.5217 41.7927H35.8405C35.8405 42.2859 35.942 42.717 36.145 43.0859C36.3481 43.4506 36.6202 43.7533 36.9613 43.9937C37.3024 44.23 37.6822 44.4081 38.1004 44.5283C38.4964 44.6371 38.8959 44.6949 39.299 44.7017L39.3797 44.7024C39.863 44.7024 40.2995 44.6464 40.6894 44.5345C41.0586 44.4296 41.3779 44.2792 41.6473 44.0832L41.7006 44.0434C41.9808 43.8279 42.1959 43.5667 42.3462 43.26C42.4965 42.9533 42.5716 42.6051 42.5716 42.2155C42.5716 41.8466 42.5087 41.5171 42.3828 41.2269C42.2609 40.9368 42.0762 40.6756 41.8285 40.4435C41.6 40.2259 41.3162 40.0302 40.9772 39.8564L40.9087 39.8218C40.5432 39.6394 40.1167 39.4736 39.6294 39.3244C39.3248 39.2291 39.0568 39.1338 38.8253 39.0385C38.5979 38.939 38.407 38.8332 38.2527 38.7213C38.0984 38.6053 37.9826 38.483 37.9055 38.3545C37.838 38.2385 37.8 38.1097 37.7916 37.9683L37.7898 37.9069C37.7898 37.6873 37.8446 37.4883 37.9543 37.3101C38.068 37.1319 38.2365 36.9909 38.4598 36.8872C38.6872 36.7836 38.9715 36.7319 39.3127 36.7319L39.3782 36.7326C39.7022 36.7399 39.9728 36.8018 40.1898 36.9183C40.4253 37.0427 40.6 37.2126 40.7137 37.4282C40.8315 37.6437 40.8904 37.8925 40.8904 38.1743H42.5594C42.5594 37.6847 42.4434 37.2406 42.2114 36.8421L42.1635 36.7629C41.8995 36.3443 41.5259 36.0127 41.0426 35.7681C40.5934 35.5388 40.0656 35.4171 39.4593 35.4027L39.3371 35.4013C38.8619 35.4013 38.4274 35.4615 38.0335 35.5817C37.6437 35.7019 37.3045 35.8738 37.0162 36.0976C36.7279 36.3173 36.5044 36.5805 36.3461 36.8872L36.2374 36.8311C36.3941 36.5277 36.6108 36.2652 36.8862 36.0439L36.942 36.0003C37.2431 35.7668 37.5955 35.5886 37.9974 35.4647L37.9978 35.4645C38.4049 35.3403 38.8516 35.2789 39.3371 35.2789C40.01 35.2789 40.5984 35.404 41.0982 35.6591H41.0981C41.5991 35.9127 41.9901 36.2586 42.267 36.6977C42.5439 37.137 42.6818 37.6303 42.6818 38.1743V38.2967H40.768V38.1743C40.768 37.9099 40.7129 37.6819 40.6063 37.4868L40.6058 37.486L40.6055 37.4853C40.5043 37.2936 40.3485 37.1406 40.1327 37.0266L40.1319 37.0261C39.9233 36.9141 39.6524 36.8543 39.3127 36.8543C38.983 36.8543 38.7174 36.9044 38.5106 36.9986C38.306 37.0937 38.1576 37.2196 38.0585 37.3741C37.9613 37.5321 37.9122 37.7087 37.9122 37.9069C37.9122 38.0525 37.9457 38.1799 38.0108 38.2921C38.0776 38.4032 38.1806 38.5137 38.3246 38.6222L38.3809 38.6617C38.5164 38.7531 38.6805 38.8415 38.8744 38.9263H38.8743C39.101 39.0196 39.3645 39.1132 39.6652 39.2074C40.1573 39.3581 40.5901 39.5262 40.9628 39.7121L41.033 39.7474C41.3801 39.9254 41.6738 40.1274 41.9121 40.3542C42.171 40.5968 42.366 40.8715 42.495 41.1782C42.6286 41.486 42.694 41.8326 42.694 42.2155C42.694 42.6211 42.6157 42.9882 42.4561 43.3139C42.2973 43.6381 42.0697 43.9138 41.7752 44.1404C41.4809 44.3667 41.1294 44.5366 40.7229 44.6521L40.7231 44.6522C40.3204 44.7678 39.8722 44.8248 39.3797 44.8248C38.9381 44.8248 38.5008 44.7653 38.068 44.6464L38.0666 44.646C37.6362 44.5223 37.2442 44.3384 36.8917 44.0942L36.8908 44.0938C36.5347 43.8428 36.2502 43.5263 36.0382 43.1455L36.0378 43.1449C35.8233 42.7551 35.7181 42.303 35.7181 41.7927V41.6703H37.6441V41.7927C37.6441 42.0662 37.6869 42.2929 37.7676 42.4766C37.8526 42.657 37.9696 42.8038 38.1185 42.9192C38.275 43.0331 38.4592 43.118 38.6729 43.1725C38.8893 43.2277 39.1247 43.2557 39.3797 43.2557V43.3781L39.2816 43.3768C39.0546 43.3704 38.8416 43.3419 38.6425 43.2911C38.4294 43.2367 38.2412 43.1531 38.078 43.0405L38.0457 43.0175C37.8792 42.889 37.7492 42.7254 37.6558 42.5264C37.5665 42.3233 37.5217 42.0787 37.5217 41.7927ZM40.768 42.2279C40.768 42.0662 40.7434 41.9261 40.697 41.8058L40.6962 41.8037L40.6955 41.8017C40.6552 41.6852 40.5785 41.5765 40.4586 41.4764L40.457 41.4751L40.4555 41.4736C40.3383 41.369 40.1658 41.2632 39.9325 41.1582L39.9314 41.1577L39.9302 41.1572C39.7013 41.0484 39.4023 40.9343 39.0316 40.815V40.8149C38.6131 40.6808 38.2225 40.53 37.8601 40.3619C37.4948 40.1924 37.1714 39.9945 36.8906 39.7678L36.8899 39.7673C36.6101 39.538 36.3901 39.2725 36.2317 38.971L36.2313 38.9704C36.0707 38.6602 35.9923 38.3046 35.9923 37.9069C35.9923 37.5165 36.0732 37.1575 36.2368 36.8323L36.2373 36.8311L36.3461 36.8872C36.1918 37.194 36.1147 37.5339 36.1147 37.9069L36.1155 37.9778C36.1243 38.33 36.1991 38.6421 36.34 38.9141C36.4902 39.2001 36.6994 39.453 36.9674 39.6727C37.2395 39.8923 37.5542 40.0851 37.9116 40.2509C38.269 40.4167 38.6548 40.5658 39.069 40.6985C39.4426 40.8186 39.7471 40.9347 39.9827 41.0466C40.2223 41.1544 40.4071 41.2664 40.5371 41.3824C40.6711 41.4943 40.7624 41.6207 40.8111 41.7617C40.8639 41.8984 40.8904 42.0538 40.8904 42.2279L40.8897 42.2696C40.883 42.4765 40.8264 42.6617 40.7198 42.8249C40.6102 42.9989 40.4436 43.1357 40.2203 43.2352L40.1784 43.2525C39.9657 43.3363 39.6995 43.3781 39.3797 43.3781V43.2557C39.69 43.2557 39.9397 43.215 40.1335 43.1387L40.1715 43.1229C40.3764 43.0315 40.5219 42.9093 40.6162 42.7596L40.6168 42.7588L40.6173 42.7579C40.717 42.6053 40.768 42.4298 40.768 42.2279Z" fill="#DFE0E0"/>
<path d="M64.6413 44.7021H63.6107L61.7859 44.7021L61.799 43.3223L64.6413 43.3223C65.1971 43.3223 65.6631 43.203 66.0395 42.9646C66.4158 42.7218 66.7003 42.3747 66.8928 41.9233C67.0854 41.4676 67.1817 40.9225 67.1817 40.2879V39.8088C67.1817 39.3191 67.127 38.8868 67.0175 38.512C66.9081 38.1373 66.7462 37.8221 66.5318 37.5666C66.3217 37.3111 66.0614 37.1173 65.7507 36.9853C65.44 36.8532 65.0833 36.7872 64.6807 36.7872H62.5408V35.401H64.6807C65.3196 35.401 65.9016 35.5053 66.4268 35.714C66.9563 35.9227 67.4136 36.2229 67.7987 36.6147C68.1882 37.0023 68.4857 37.4665 68.6914 38.0074C68.9015 38.5482 69.0065 39.153 69.0065 39.8216V40.2879C69.0065 40.9523 68.9015 41.557 68.6914 42.1022C68.4857 42.643 68.1882 43.1072 67.7987 43.4948C67.4136 43.8823 66.9541 44.1804 66.4202 44.3891C65.8863 44.5978 65.2934 44.7021 64.6413 44.7021ZM63.591 35.401V44.7021H61.7859V35.401H63.591Z" fill="white"/>
</svg>
